solid 
 facet normal  0.000000e+00  1.000000e+00  0.000000e+00
   outer loop
     vertex -6.537045e+01  1.850000e+02 -2.602214e+02
     vertex -6.490165e+01  1.850000e+02 -2.612441e+02
     vertex -6.566119e+01  1.850000e+02 -2.618753e+02
   endloop
 endfacet
 facet normal  0.000000e+00  1.000000e+00  0.000000e+00
   outer loop
     vertex -6.372077e+01  1.850000e+02 -2.607027e+02
     vertex -6.490165e+01  1.850000e+02 -2.612441e+02
     vertex -6.537045e+01  1.850000e+02 -2.602214e+02
   endloop
 endfacet
endsolid
