solid 
 facet normal  0.000000e+00  0.000000e+00  1.000000e+00
   outer loop
     vertex  6.000000e+01  3.500000e+01  1.000000e+01
     vertex  5.451785e+01  2.397084e+01  1.000000e+01
     vertex  5.548215e+01  2.397084e+01  1.000000e+01
   endloop
 endfacet
 facet normal  0.000000e+00  0.000000e+00  1.000000e+00
   outer loop
     vertex  6.000000e+01  3.500000e+01  1.000000e+01
     vertex  5.000000e+01  3.500000e+01  1.000000e+01
     vertex  5.451785e+01  2.397084e+01  1.000000e+01
   endloop
 endfacet
endsolid
